<svg width="48" height="48" viewBox="0 0 48 48" fill="none" xmlns="http://www.w3.org/2000/svg">
<path d="M0 12C0 5.37258 5.37258 0 12 0H36C42.6274 0 48 5.37258 48 12V36C48 42.6274 42.6274 48 36 48H12C5.37258 48 0 42.6274 0 36V12Z" fill="#FB9700"/>
<path d="M41.41 24.4082C38.1463 21.1445 32.8417 21.1792 29.6127 24.4082L26.8954 27.1255C25.3951 28.6258 22.9582 28.6258 21.4579 27.1255L19.2002 24.8678L13.3001 30.7679L15.5578 33.0256C20.316 37.7838 28.0344 37.7838 32.7926 33.0256L41.41 24.4082ZM6.9375 23.5957C10.2012 26.8594 15.4393 26.8912 18.7029 23.6275L21.455 20.8755C22.9553 19.3752 25.3922 19.3752 26.8925 20.8755L29.1502 23.1332L35.0503 17.2331L32.7926 14.9754C28.0344 10.2172 20.316 10.2172 15.5578 14.9754L6.94039 23.5928L6.9375 23.5957Z" fill="#101214"/>
</svg>
